<svg xmlns="http://www.w3.org/2000/svg" viewBox="0 0 249.79 182.23"><defs><style>.cls-1{isolation:isolate;}.cls-2{fill:#867667;opacity:0.3;mix-blend-mode:multiply;}.cls-3{fill:#7f5f38;}.cls-4{fill:#f4eed2;}.cls-5{fill:#2e4907;}.cls-6{font-size:17.57px;fill:#f7f3e2;font-family:PixelEmulator, PixelEmulator;}.cls-7{letter-spacing:0em;}</style></defs><title>Asset 2</title><g class="cls-1"><g id="Layer_2" data-name="Layer 2"><g id="Layer_1-2" data-name="Layer 1"><polygon class="cls-2" points="9.76 165.59 166.9 5.47 180.77 12.75 249.79 182.23 9.76 165.59"/><polygon class="cls-3" points="0.21 174.19 19.91 9.72 167.17 15.19 220.26 179.13 0.21 174.19"/><polygon class="cls-4" points="0.21 174.19 0 166.07 216.06 169.34 216.27 177.47 0.21 174.19"/><polygon class="cls-5" points="0 166.07 19.65 0 166.9 5.47 219.99 169.4 0 166.07"/><polygon class="cls-2" points="40.67 29.13 155.47 30.86 163.71 61.46 35.86 59.53 40.67 29.13"/><polygon class="cls-2" points="19.65 0 0 166.07 9.69 166.22 26.96 0.45 19.65 0"/><text class="cls-6" transform="translate(55.88 50.71) rotate(1.66) scale(1.08 1)">POLI<tspan class="cls-7" x="33.94" y="0">C</tspan><tspan x="44.18" y="0">Y</tspan></text></g></g></g></svg>