<svg xmlns="http://www.w3.org/2000/svg" viewBox="0 0 250.07 185.84"><defs><style>.cls-1{isolation:isolate;}.cls-2{fill:#867667;opacity:0.3;mix-blend-mode:multiply;}.cls-3{fill:#7f5f38;}.cls-4{fill:#f4eed2;}.cls-5{fill:#9e1356;}.cls-6{font-size:17.57px;fill:#f7f3e2;font-family:PixelEmulator, PixelEmulator;}.cls-7{letter-spacing:-0.04em;}.cls-8{letter-spacing:-0.03em;}.cls-9{letter-spacing:-0.01em;}.cls-10{letter-spacing:0em;}</style></defs><title>Asset 3</title><g class="cls-1"><g id="Layer_2" data-name="Layer 2"><g id="Layer_1-2" data-name="Layer 1"><polygon class="cls-2" points="9.64 176.25 148.47 0 163.04 5.73 250.07 166.71 9.64 176.25"/><polygon class="cls-3" points="1.1 185.84 2.81 20.2 149.79 9.64 220.37 166.83 1.1 185.84"/><polygon class="cls-4" points="1.1 185.84 0 177.78 215.13 157.56 216.23 165.62 1.1 185.84"/><polygon class="cls-5" points="0 177.78 1.49 10.56 148.47 0 219.05 157.19 0 177.78"/><polygon class="cls-2" points="25.56 37.23 139.86 26.49 151.38 56.01 24.07 67.97 25.56 37.23"/><polygon class="cls-2" points="1.49 10.56 0 177.78 9.65 176.88 8.81 10.21 1.49 10.56"/><text class="cls-6" transform="translate(32.2 56.69) rotate(-3.78) scale(1.08 1)">EMP<tspan class="cls-7" x="32.11" y="0">L</tspan><tspan class="cls-8" x="39.72" y="0">O</tspan><tspan class="cls-9" x="51.33" y="0">Y</tspan><tspan class="cls-10" x="60.71" y="0">EE</tspan></text></g></g></g></svg>